<svg xmlns="http://www.w3.org/2000/svg" width="27" height="27" viewBox="0 0 27 27">
  <g id="Favorite" transform="translate(-1190.359 -811.532)">
    <circle id="Ellipse_" data-name="Ellipse " cx="13.5" cy="13.5" r="13.5" transform="translate(1190.359 811.531)" fill="#253829"/>
    <path id="Icon_ionic-ios-heart" data-name="Icon ionic-ios-heart" d="M13.423,3.938H13.39a3.761,3.761,0,0,0-3.14,1.719A3.761,3.761,0,0,0,7.11,3.938H7.077a3.737,3.737,0,0,0-3.7,3.735,8.046,8.046,0,0,0,1.58,4.386,27.688,27.688,0,0,0,5.3,5.1,27.688,27.688,0,0,0,5.3-5.1,8.046,8.046,0,0,0,1.58-4.386A3.737,3.737,0,0,0,13.423,3.938Z" transform="translate(1193.359 814.698)" fill="none" stroke="#fff" stroke-width="1.5"/>
  </g>
</svg>
