<svg xmlns="http://www.w3.org/2000/svg" width="89.385" height="17.353" viewBox="0 0 89.385 17.353">
  <g id="Icons" transform="translate(-400.3 -434.725)">
    <g id="Icon_feather-coffee" data-name="Icon feather-coffee" transform="translate(401 435.425)">
      <path id="Path_4" data-name="Path 4" d="M27,12h.779a3.115,3.115,0,1,1,0,6.23H27" transform="translate(-14.54 -6.549)" fill="none" stroke="#dbdbdb" stroke-linecap="round" stroke-linejoin="round" stroke-width="1.4"/>
      <path id="Path_5" data-name="Path 5" d="M3,12H15.46v7.009a3.115,3.115,0,0,1-3.115,3.115H6.115A3.115,3.115,0,0,1,3,19.009Z" transform="translate(-3 -6.549)" fill="none" stroke="#dbdbdb" stroke-linecap="round" stroke-linejoin="round" stroke-width="1.4"/>
      <path id="Path_6" data-name="Path 6" d="M9,1.5V3.836" transform="translate(-5.885 -1.5)" fill="none" stroke="#dbdbdb" stroke-linecap="round" stroke-linejoin="round" stroke-width="1.4"/>
      <path id="Path_7" data-name="Path 7" d="M15,1.5V3.836" transform="translate(-8.77 -1.5)" fill="none" stroke="#dbdbdb" stroke-linecap="round" stroke-linejoin="round" stroke-width="1.4"/>
      <path id="Path_8" data-name="Path 8" d="M21,1.5V3.836" transform="translate(-11.655 -1.5)" fill="none" stroke="#dbdbdb" stroke-linecap="round" stroke-linejoin="round" stroke-width="1.4"/>
    </g>
    <path id="Icon_awesome-wifi" data-name="Icon awesome-wifi" d="M20.143,6.149a14.751,14.751,0,0,0-19.982,0,.5.5,0,0,0-.011.729L1.237,7.955a.515.515,0,0,0,.711.012,12.172,12.172,0,0,1,16.41,0,.515.515,0,0,0,.711-.012l1.086-1.078a.5.5,0,0,0-.011-.729ZM10.152,12.4a2.03,2.03,0,1,0,2.03,2.03A2.03,2.03,0,0,0,10.152,12.4Zm6.43-2.652a9.74,9.74,0,0,0-12.86,0,.5.5,0,0,0-.018.734L4.8,11.563a.518.518,0,0,0,.7.025,7.146,7.146,0,0,1,9.311,0,.518.518,0,0,0,.7-.025L16.6,10.485A.5.5,0,0,0,16.582,9.75Z" transform="translate(425.048 435.104)" fill="#dbdbdb"/>
    <path id="Icon_metro-dollar2" data-name="Icon metro-dollar2" d="M17.742,12.09a3.174,3.174,0,0,1-.83,2.2,3.583,3.583,0,0,1-2.157,1.139v1.46a.257.257,0,0,1-.267.267H13.362a.271.271,0,0,1-.267-.267v-1.46a5.259,5.259,0,0,1-1.064-.259,5.124,5.124,0,0,1-1.464-.772,4.755,4.755,0,0,1-.388-.313q-.1-.1-.146-.15a.253.253,0,0,1-.017-.342l.859-1.126a.26.26,0,0,1,.192-.1.207.207,0,0,1,.2.075l.017.017A4.357,4.357,0,0,0,13.312,13.5a2.914,2.914,0,0,0,.617.067,2.023,2.023,0,0,0,1.189-.359,1.169,1.169,0,0,0,.513-1.018.846.846,0,0,0-.125-.442,1.563,1.563,0,0,0-.28-.35,2.29,2.29,0,0,0-.488-.313q-.334-.171-.551-.267t-.667-.271l-.513-.209q-.188-.075-.513-.221t-.521-.259q-.2-.113-.471-.3a2.938,2.938,0,0,1-.446-.355,5.2,5.2,0,0,1-.363-.409,2.041,2.041,0,0,1-.3-.484,3.346,3.346,0,0,1-.175-.555,2.9,2.9,0,0,1-.071-.651,2.853,2.853,0,0,1,.818-2.019,3.818,3.818,0,0,1,2.128-1.118V2.47a.271.271,0,0,1,.267-.267h1.126a.257.257,0,0,1,.267.267V3.939a4.641,4.641,0,0,1,.922.192,5.345,5.345,0,0,1,.726.28,4.02,4.02,0,0,1,.53.313q.25.175.325.242t.125.117a.241.241,0,0,1,.042.317l-.676,1.218a.227.227,0,0,1-.192.133.266.266,0,0,1-.225-.058q-.025-.025-.121-.1t-.325-.221A4.306,4.306,0,0,0,15.4,6.1a3.726,3.726,0,0,0-.622-.217,2.784,2.784,0,0,0-.713-.1,2.168,2.168,0,0,0-1.293.359,1.122,1.122,0,0,0-.43,1.327.939.939,0,0,0,.246.346,3.677,3.677,0,0,0,.33.275,2.939,2.939,0,0,0,.467.259q.313.146.5.225t.584.229q.442.167.676.263t.634.292a5.041,5.041,0,0,1,.63.355,5.327,5.327,0,0,1,.517.417,2.16,2.16,0,0,1,.442.53,3.023,3.023,0,0,1,.263.638,2.752,2.752,0,0,1,.108.784Z" transform="translate(444.693 434.923)" fill="#dbdbdb"/>
    <path id="Icon_metro-dollar2-2" data-name="Icon metro-dollar2" d="M17.742,12.09a3.174,3.174,0,0,1-.83,2.2,3.583,3.583,0,0,1-2.157,1.139v1.46a.257.257,0,0,1-.267.267H13.362a.271.271,0,0,1-.267-.267v-1.46a5.259,5.259,0,0,1-1.064-.259,5.124,5.124,0,0,1-1.464-.772,4.755,4.755,0,0,1-.388-.313q-.1-.1-.146-.15a.253.253,0,0,1-.017-.342l.859-1.126a.26.26,0,0,1,.192-.1.207.207,0,0,1,.2.075l.017.017A4.357,4.357,0,0,0,13.312,13.5a2.914,2.914,0,0,0,.617.067,2.023,2.023,0,0,0,1.189-.359,1.169,1.169,0,0,0,.513-1.018.846.846,0,0,0-.125-.442,1.563,1.563,0,0,0-.28-.35,2.29,2.29,0,0,0-.488-.313q-.334-.171-.551-.267t-.667-.271l-.513-.209q-.188-.075-.513-.221t-.521-.259q-.2-.113-.471-.3a2.938,2.938,0,0,1-.446-.355,5.2,5.2,0,0,1-.363-.409,2.041,2.041,0,0,1-.3-.484,3.346,3.346,0,0,1-.175-.555,2.9,2.9,0,0,1-.071-.651,2.853,2.853,0,0,1,.818-2.019,3.818,3.818,0,0,1,2.128-1.118V2.47a.271.271,0,0,1,.267-.267h1.126a.257.257,0,0,1,.267.267V3.939a4.641,4.641,0,0,1,.922.192,5.345,5.345,0,0,1,.726.28,4.02,4.02,0,0,1,.53.313q.25.175.325.242t.125.117a.241.241,0,0,1,.042.317l-.676,1.218a.227.227,0,0,1-.192.133.266.266,0,0,1-.225-.058q-.025-.025-.121-.1t-.325-.221A4.306,4.306,0,0,0,15.4,6.1a3.726,3.726,0,0,0-.622-.217,2.784,2.784,0,0,0-.713-.1,2.168,2.168,0,0,0-1.293.359,1.122,1.122,0,0,0-.43,1.327.939.939,0,0,0,.246.346,3.677,3.677,0,0,0,.33.275,2.939,2.939,0,0,0,.467.259q.313.146.5.225t.584.229q.442.167.676.263t.634.292a5.041,5.041,0,0,1,.63.355,5.327,5.327,0,0,1,.517.417,2.16,2.16,0,0,1,.442.53,3.023,3.023,0,0,1,.263.638,2.752,2.752,0,0,1,.108.784Z" transform="translate(453.776 434.923)" fill="#f2f2f2"/>
    <path id="Icon_metro-dollar2-3" data-name="Icon metro-dollar2" d="M17.742,12.09a3.174,3.174,0,0,1-.83,2.2,3.583,3.583,0,0,1-2.157,1.139v1.46a.257.257,0,0,1-.267.267H13.362a.271.271,0,0,1-.267-.267v-1.46a5.259,5.259,0,0,1-1.064-.259,5.124,5.124,0,0,1-1.464-.772,4.755,4.755,0,0,1-.388-.313q-.1-.1-.146-.15a.253.253,0,0,1-.017-.342l.859-1.126a.26.26,0,0,1,.192-.1.207.207,0,0,1,.2.075l.017.017A4.357,4.357,0,0,0,13.312,13.5a2.914,2.914,0,0,0,.617.067,2.023,2.023,0,0,0,1.189-.359,1.169,1.169,0,0,0,.513-1.018.846.846,0,0,0-.125-.442,1.563,1.563,0,0,0-.28-.35,2.29,2.29,0,0,0-.488-.313q-.334-.171-.551-.267t-.667-.271l-.513-.209q-.188-.075-.513-.221t-.521-.259q-.2-.113-.471-.3a2.938,2.938,0,0,1-.446-.355,5.2,5.2,0,0,1-.363-.409,2.041,2.041,0,0,1-.3-.484,3.346,3.346,0,0,1-.175-.555,2.9,2.9,0,0,1-.071-.651,2.853,2.853,0,0,1,.818-2.019,3.818,3.818,0,0,1,2.128-1.118V2.47a.271.271,0,0,1,.267-.267h1.126a.257.257,0,0,1,.267.267V3.939a4.641,4.641,0,0,1,.922.192,5.345,5.345,0,0,1,.726.28,4.02,4.02,0,0,1,.53.313q.25.175.325.242t.125.117a.241.241,0,0,1,.042.317l-.676,1.218a.227.227,0,0,1-.192.133.266.266,0,0,1-.225-.058q-.025-.025-.121-.1t-.325-.221A4.306,4.306,0,0,0,15.4,6.1a3.726,3.726,0,0,0-.622-.217,2.784,2.784,0,0,0-.713-.1,2.168,2.168,0,0,0-1.293.359,1.122,1.122,0,0,0-.43,1.327.939.939,0,0,0,.246.346,3.677,3.677,0,0,0,.33.275,2.939,2.939,0,0,0,.467.259q.313.146.5.225t.584.229q.442.167.676.263t.634.292a5.041,5.041,0,0,1,.63.355,5.327,5.327,0,0,1,.517.417,2.16,2.16,0,0,1,.442.53,3.023,3.023,0,0,1,.263.638,2.752,2.752,0,0,1,.108.784Z" transform="translate(462.86 434.923)" fill="#f2f2f2"/>
    <path id="Icon_metro-dollar2-4" data-name="Icon metro-dollar2" d="M17.742,12.09a3.174,3.174,0,0,1-.83,2.2,3.583,3.583,0,0,1-2.157,1.139v1.46a.257.257,0,0,1-.267.267H13.362a.271.271,0,0,1-.267-.267v-1.46a5.259,5.259,0,0,1-1.064-.259,5.124,5.124,0,0,1-1.464-.772,4.755,4.755,0,0,1-.388-.313q-.1-.1-.146-.15a.253.253,0,0,1-.017-.342l.859-1.126a.26.26,0,0,1,.192-.1.207.207,0,0,1,.2.075l.017.017A4.357,4.357,0,0,0,13.312,13.5a2.914,2.914,0,0,0,.617.067,2.023,2.023,0,0,0,1.189-.359,1.169,1.169,0,0,0,.513-1.018.846.846,0,0,0-.125-.442,1.563,1.563,0,0,0-.28-.35,2.29,2.29,0,0,0-.488-.313q-.334-.171-.551-.267t-.667-.271l-.513-.209q-.188-.075-.513-.221t-.521-.259q-.2-.113-.471-.3a2.938,2.938,0,0,1-.446-.355,5.2,5.2,0,0,1-.363-.409,2.041,2.041,0,0,1-.3-.484,3.346,3.346,0,0,1-.175-.555,2.9,2.9,0,0,1-.071-.651,2.853,2.853,0,0,1,.818-2.019,3.818,3.818,0,0,1,2.128-1.118V2.47a.271.271,0,0,1,.267-.267h1.126a.257.257,0,0,1,.267.267V3.939a4.641,4.641,0,0,1,.922.192,5.345,5.345,0,0,1,.726.28,4.02,4.02,0,0,1,.53.313q.25.175.325.242t.125.117a.241.241,0,0,1,.042.317l-.676,1.218a.227.227,0,0,1-.192.133.266.266,0,0,1-.225-.058q-.025-.025-.121-.1t-.325-.221A4.306,4.306,0,0,0,15.4,6.1a3.726,3.726,0,0,0-.622-.217,2.784,2.784,0,0,0-.713-.1,2.168,2.168,0,0,0-1.293.359,1.122,1.122,0,0,0-.43,1.327.939.939,0,0,0,.246.346,3.677,3.677,0,0,0,.33.275,2.939,2.939,0,0,0,.467.259q.313.146.5.225t.584.229q.442.167.676.263t.634.292a5.041,5.041,0,0,1,.63.355,5.327,5.327,0,0,1,.517.417,2.16,2.16,0,0,1,.442.53,3.023,3.023,0,0,1,.263.638,2.752,2.752,0,0,1,.108.784Z" transform="translate(471.944 434.923)" fill="#f2f2f2"/>
  </g>
</svg>
