<svg xmlns="http://www.w3.org/2000/svg" width="141.856" height="21.937" viewBox="0 0 141.856 21.937">
  <g id="Icons" transform="translate(0.7 0.7)">
    <g id="Icon_feather-coffee" data-name="Icon feather-coffee" transform="translate(0 0)">
      <path id="Path_4" data-name="Path 4" d="M27,12h.993a3.972,3.972,0,1,1,0,7.945H27" transform="translate(-11.11 -5.048)" fill="none" stroke="#dbdbdb" stroke-linecap="round" stroke-linejoin="round" stroke-width="1.4"/>
      <path id="Path_5" data-name="Path 5" d="M3,12H18.89v8.938a3.972,3.972,0,0,1-3.972,3.972H6.972A3.972,3.972,0,0,1,3,20.938Z" transform="translate(-3 -5.048)" fill="none" stroke="#dbdbdb" stroke-linecap="round" stroke-linejoin="round" stroke-width="1.4"/>
      <path id="Path_6" data-name="Path 6" d="M9,1.5V4.479" transform="translate(-5.028 -1.5)" fill="none" stroke="#dbdbdb" stroke-linecap="round" stroke-linejoin="round" stroke-width="1.4"/>
      <path id="Path_7" data-name="Path 7" d="M15,1.5V4.479" transform="translate(-7.055 -1.5)" fill="none" stroke="#dbdbdb" stroke-linecap="round" stroke-linejoin="round" stroke-width="1.4"/>
      <path id="Path_8" data-name="Path 8" d="M21,1.5V4.479" transform="translate(-9.083 -1.5)" fill="none" stroke="#dbdbdb" stroke-linecap="round" stroke-linejoin="round" stroke-width="1.4"/>
    </g>
    <path id="Icon_map-restaurant" data-name="Icon map-restaurant" d="M12.21,1.109V5.73h-.835V1.137a.418.418,0,0,0-.835,0V5.73H9.705V1.122a.418.418,0,0,0-.835-.014V5.73H8.035V1.142A.418.418,0,0,0,7.2,1.119V7.162A1.575,1.575,0,0,0,8.87,8.608v10.9a1.253,1.253,0,1,0,2.505,0V8.608a1.672,1.672,0,0,0,1.67-1.347V1.122A.419.419,0,0,0,12.21,1.109ZM15.968,2.39V12.828H16.8v6.681c0,1.67,2.923,1.67,2.923,0V2.39C19.726.3,15.968.3,15.968,2.39Z" transform="translate(25.865 -0.629)" fill="#dbdbdb"/>
    <path id="Icon_awesome-wifi" data-name="Icon awesome-wifi" d="M25.689,7.222a18.812,18.812,0,0,0-25.483,0,.643.643,0,0,0-.014.93L1.577,9.526a.657.657,0,0,0,.906.015,15.523,15.523,0,0,1,20.928,0,.657.657,0,0,0,.906-.015L25.7,8.151a.643.643,0,0,0-.015-.93ZM12.947,15.2a2.589,2.589,0,1,0,2.589,2.589A2.589,2.589,0,0,0,12.947,15.2Zm8.2-3.382a12.421,12.421,0,0,0-16.4,0,.64.64,0,0,0-.023.937l1.393,1.375a.66.66,0,0,0,.892.032,9.113,9.113,0,0,1,11.875,0,.66.66,0,0,0,.892-.032l1.393-1.375A.64.64,0,0,0,21.147,11.815Z" transform="translate(58.725 0.21)" fill="#dbdbdb"/>
    <path id="Icon_metro-dollar2" data-name="Icon metro-dollar2" d="M19.885,14.812a4.048,4.048,0,0,1-1.059,2.8,4.569,4.569,0,0,1-2.75,1.452V20.93a.328.328,0,0,1-.34.34H14.3a.345.345,0,0,1-.34-.34V19.068a6.707,6.707,0,0,1-1.357-.33,6.534,6.534,0,0,1-1.867-.984,6.065,6.065,0,0,1-.495-.4q-.133-.128-.186-.192a.323.323,0,0,1-.021-.436l1.1-1.436a.331.331,0,0,1,.245-.128.264.264,0,0,1,.255.1l.021.021a5.556,5.556,0,0,0,2.586,1.33,3.716,3.716,0,0,0,.787.085,2.58,2.58,0,0,0,1.516-.458,1.49,1.49,0,0,0,.654-1.3,1.079,1.079,0,0,0-.16-.564,1.994,1.994,0,0,0-.356-.447,2.92,2.92,0,0,0-.622-.4q-.426-.218-.7-.34t-.851-.346q-.415-.17-.654-.266t-.654-.282q-.415-.186-.665-.33t-.6-.378a3.747,3.747,0,0,1-.569-.452,6.632,6.632,0,0,1-.463-.521A2.6,2.6,0,0,1,10.516,10a4.267,4.267,0,0,1-.223-.708,3.693,3.693,0,0,1-.09-.83,3.638,3.638,0,0,1,1.043-2.575,4.869,4.869,0,0,1,2.713-1.426V2.544a.345.345,0,0,1,.34-.34h1.436a.328.328,0,0,1,.34.34V4.417a5.918,5.918,0,0,1,1.176.245,6.817,6.817,0,0,1,.926.356,5.127,5.127,0,0,1,.676.4q.319.223.415.309t.16.149a.308.308,0,0,1,.053.4l-.862,1.553a.29.29,0,0,1-.245.17.339.339,0,0,1-.287-.074q-.032-.032-.154-.128t-.415-.282a5.491,5.491,0,0,0-.622-.34A4.752,4.752,0,0,0,16.1,6.9a3.55,3.55,0,0,0-.91-.122,2.765,2.765,0,0,0-1.649.458A1.43,1.43,0,0,0,13,8.928a1.2,1.2,0,0,0,.314.442,4.689,4.689,0,0,0,.42.351,3.748,3.748,0,0,0,.6.33q.4.186.644.287t.745.293q.564.213.862.335t.809.372a6.428,6.428,0,0,1,.8.452,6.793,6.793,0,0,1,.66.532,2.755,2.755,0,0,1,.564.676,3.856,3.856,0,0,1,.335.814,3.51,3.51,0,0,1,.138,1Z" transform="translate(86.519 -0.033)" fill="#dbdbdb"/>
    <path id="Icon_metro-dollar2-2" data-name="Icon metro-dollar2" d="M19.885,14.812a4.048,4.048,0,0,1-1.059,2.8,4.569,4.569,0,0,1-2.75,1.452V20.93a.328.328,0,0,1-.34.34H14.3a.345.345,0,0,1-.34-.34V19.068a6.707,6.707,0,0,1-1.357-.33,6.534,6.534,0,0,1-1.867-.984,6.065,6.065,0,0,1-.495-.4q-.133-.128-.186-.192a.323.323,0,0,1-.021-.436l1.1-1.436a.331.331,0,0,1,.245-.128.264.264,0,0,1,.255.1l.021.021a5.556,5.556,0,0,0,2.586,1.33,3.716,3.716,0,0,0,.787.085,2.58,2.58,0,0,0,1.516-.458,1.49,1.49,0,0,0,.654-1.3,1.079,1.079,0,0,0-.16-.564,1.994,1.994,0,0,0-.356-.447,2.92,2.92,0,0,0-.622-.4q-.426-.218-.7-.34t-.851-.346q-.415-.17-.654-.266t-.654-.282q-.415-.186-.665-.33t-.6-.378a3.747,3.747,0,0,1-.569-.452,6.632,6.632,0,0,1-.463-.521A2.6,2.6,0,0,1,10.516,10a4.267,4.267,0,0,1-.223-.708,3.693,3.693,0,0,1-.09-.83,3.638,3.638,0,0,1,1.043-2.575,4.869,4.869,0,0,1,2.713-1.426V2.544a.345.345,0,0,1,.34-.34h1.436a.328.328,0,0,1,.34.34V4.417a5.918,5.918,0,0,1,1.176.245,6.817,6.817,0,0,1,.926.356,5.127,5.127,0,0,1,.676.4q.319.223.415.309t.16.149a.308.308,0,0,1,.053.4l-.862,1.553a.29.29,0,0,1-.245.17.339.339,0,0,1-.287-.074q-.032-.032-.154-.128t-.415-.282a5.491,5.491,0,0,0-.622-.34A4.752,4.752,0,0,0,16.1,6.9a3.55,3.55,0,0,0-.91-.122,2.765,2.765,0,0,0-1.649.458A1.43,1.43,0,0,0,13,8.928a1.2,1.2,0,0,0,.314.442,4.689,4.689,0,0,0,.42.351,3.748,3.748,0,0,0,.6.33q.4.186.644.287t.745.293q.564.213.862.335t.809.372a6.428,6.428,0,0,1,.8.452,6.793,6.793,0,0,1,.66.532,2.755,2.755,0,0,1,.564.676,3.856,3.856,0,0,1,.335.814,3.51,3.51,0,0,1,.138,1Z" transform="translate(98.103 -0.033)" fill="#dbdbdb"/>
    <path id="Icon_metro-dollar2-3" data-name="Icon metro-dollar2" d="M19.885,14.812a4.048,4.048,0,0,1-1.059,2.8,4.569,4.569,0,0,1-2.75,1.452V20.93a.328.328,0,0,1-.34.34H14.3a.345.345,0,0,1-.34-.34V19.068a6.707,6.707,0,0,1-1.357-.33,6.534,6.534,0,0,1-1.867-.984,6.065,6.065,0,0,1-.495-.4q-.133-.128-.186-.192a.323.323,0,0,1-.021-.436l1.1-1.436a.331.331,0,0,1,.245-.128.264.264,0,0,1,.255.1l.021.021a5.556,5.556,0,0,0,2.586,1.33,3.716,3.716,0,0,0,.787.085,2.58,2.58,0,0,0,1.516-.458,1.49,1.49,0,0,0,.654-1.3,1.079,1.079,0,0,0-.16-.564,1.994,1.994,0,0,0-.356-.447,2.92,2.92,0,0,0-.622-.4q-.426-.218-.7-.34t-.851-.346q-.415-.17-.654-.266t-.654-.282q-.415-.186-.665-.33t-.6-.378a3.747,3.747,0,0,1-.569-.452,6.632,6.632,0,0,1-.463-.521A2.6,2.6,0,0,1,10.516,10a4.267,4.267,0,0,1-.223-.708,3.693,3.693,0,0,1-.09-.83,3.638,3.638,0,0,1,1.043-2.575,4.869,4.869,0,0,1,2.713-1.426V2.544a.345.345,0,0,1,.34-.34h1.436a.328.328,0,0,1,.34.34V4.417a5.918,5.918,0,0,1,1.176.245,6.817,6.817,0,0,1,.926.356,5.127,5.127,0,0,1,.676.4q.319.223.415.309t.16.149a.308.308,0,0,1,.053.4l-.862,1.553a.29.29,0,0,1-.245.17.339.339,0,0,1-.287-.074q-.032-.032-.154-.128t-.415-.282a5.491,5.491,0,0,0-.622-.34A4.752,4.752,0,0,0,16.1,6.9a3.55,3.55,0,0,0-.91-.122,2.765,2.765,0,0,0-1.649.458A1.43,1.43,0,0,0,13,8.928a1.2,1.2,0,0,0,.314.442,4.689,4.689,0,0,0,.42.351,3.748,3.748,0,0,0,.6.33q.4.186.644.287t.745.293q.564.213.862.335t.809.372a6.428,6.428,0,0,1,.8.452,6.793,6.793,0,0,1,.66.532,2.755,2.755,0,0,1,.564.676,3.856,3.856,0,0,1,.335.814,3.51,3.51,0,0,1,.138,1Z" transform="translate(109.687 -0.033)" fill="#f2f2f2"/>
    <path id="Icon_metro-dollar2-4" data-name="Icon metro-dollar2" d="M19.885,14.812a4.048,4.048,0,0,1-1.059,2.8,4.569,4.569,0,0,1-2.75,1.452V20.93a.328.328,0,0,1-.34.34H14.3a.345.345,0,0,1-.34-.34V19.068a6.707,6.707,0,0,1-1.357-.33,6.534,6.534,0,0,1-1.867-.984,6.065,6.065,0,0,1-.495-.4q-.133-.128-.186-.192a.323.323,0,0,1-.021-.436l1.1-1.436a.331.331,0,0,1,.245-.128.264.264,0,0,1,.255.1l.021.021a5.556,5.556,0,0,0,2.586,1.33,3.716,3.716,0,0,0,.787.085,2.58,2.58,0,0,0,1.516-.458,1.49,1.49,0,0,0,.654-1.3,1.079,1.079,0,0,0-.16-.564,1.994,1.994,0,0,0-.356-.447,2.92,2.92,0,0,0-.622-.4q-.426-.218-.7-.34t-.851-.346q-.415-.17-.654-.266t-.654-.282q-.415-.186-.665-.33t-.6-.378a3.747,3.747,0,0,1-.569-.452,6.632,6.632,0,0,1-.463-.521A2.6,2.6,0,0,1,10.516,10a4.267,4.267,0,0,1-.223-.708,3.693,3.693,0,0,1-.09-.83,3.638,3.638,0,0,1,1.043-2.575,4.869,4.869,0,0,1,2.713-1.426V2.544a.345.345,0,0,1,.34-.34h1.436a.328.328,0,0,1,.34.34V4.417a5.918,5.918,0,0,1,1.176.245,6.817,6.817,0,0,1,.926.356,5.127,5.127,0,0,1,.676.4q.319.223.415.309t.16.149a.308.308,0,0,1,.053.4l-.862,1.553a.29.29,0,0,1-.245.17.339.339,0,0,1-.287-.074q-.032-.032-.154-.128t-.415-.282a5.491,5.491,0,0,0-.622-.34A4.752,4.752,0,0,0,16.1,6.9a3.55,3.55,0,0,0-.91-.122,2.765,2.765,0,0,0-1.649.458A1.43,1.43,0,0,0,13,8.928a1.2,1.2,0,0,0,.314.442,4.689,4.689,0,0,0,.42.351,3.748,3.748,0,0,0,.6.33q.4.186.644.287t.745.293q.564.213.862.335t.809.372a6.428,6.428,0,0,1,.8.452,6.793,6.793,0,0,1,.66.532,2.755,2.755,0,0,1,.564.676,3.856,3.856,0,0,1,.335.814,3.51,3.51,0,0,1,.138,1Z" transform="translate(121.271 -0.033)" fill="#f2f2f2"/>
  </g>
</svg>
