<svg xmlns="http://www.w3.org/2000/svg" width="111.385" height="17.353" viewBox="0 0 111.385 17.353">
  <g id="Icons" transform="translate(-400.3 -434.725)">
    <g id="Icon_feather-coffee" data-name="Icon feather-coffee" transform="translate(401 435.425)">
      <path id="Path_4" data-name="Path 4" d="M27,12h.779a3.115,3.115,0,1,1,0,6.23H27" transform="translate(-14.54 -6.549)" fill="none" stroke="#dbdbdb" stroke-linecap="round" stroke-linejoin="round" stroke-width="1.4"/>
      <path id="Path_5" data-name="Path 5" d="M3,12H15.46v7.009a3.115,3.115,0,0,1-3.115,3.115H6.115A3.115,3.115,0,0,1,3,19.009Z" transform="translate(-3 -6.549)" fill="none" stroke="#dbdbdb" stroke-linecap="round" stroke-linejoin="round" stroke-width="1.4"/>
      <path id="Path_6" data-name="Path 6" d="M9,1.5V3.836" transform="translate(-5.885 -1.5)" fill="none" stroke="#dbdbdb" stroke-linecap="round" stroke-linejoin="round" stroke-width="1.4"/>
      <path id="Path_7" data-name="Path 7" d="M15,1.5V3.836" transform="translate(-8.77 -1.5)" fill="none" stroke="#dbdbdb" stroke-linecap="round" stroke-linejoin="round" stroke-width="1.4"/>
      <path id="Path_8" data-name="Path 8" d="M21,1.5V3.836" transform="translate(-11.655 -1.5)" fill="none" stroke="#dbdbdb" stroke-linecap="round" stroke-linejoin="round" stroke-width="1.4"/>
    </g>
    <path id="Icon_map-restaurant" data-name="Icon map-restaurant" d="M11.129,1.025V4.649h-.655v-3.6a.327.327,0,0,0-.655,0v3.6H9.164V1.036a.328.328,0,0,0-.655-.011V4.649H7.855v-3.6A.328.328,0,0,0,7.2,1.033V5.771A1.235,1.235,0,0,0,8.51,6.9v8.548a.982.982,0,1,0,1.964,0V6.905a1.311,1.311,0,0,0,1.31-1.057V1.036A.328.328,0,0,0,11.129,1.025Zm2.947,1v8.185h.655v5.238c0,1.31,2.292,1.31,2.292,0V2.03C17.022.392,14.075.392,14.075,2.03Z" transform="translate(419.728 434.776)" fill="#dbdbdb"/>
    <path id="Icon_metro-dollar2" data-name="Icon metro-dollar2" d="M17.742,12.09a3.174,3.174,0,0,1-.83,2.2,3.583,3.583,0,0,1-2.157,1.139v1.46a.257.257,0,0,1-.267.267H13.362a.271.271,0,0,1-.267-.267v-1.46a5.259,5.259,0,0,1-1.064-.259,5.124,5.124,0,0,1-1.464-.772,4.755,4.755,0,0,1-.388-.313q-.1-.1-.146-.15a.253.253,0,0,1-.017-.342l.859-1.126a.26.26,0,0,1,.192-.1.207.207,0,0,1,.2.075l.017.017A4.357,4.357,0,0,0,13.312,13.5a2.914,2.914,0,0,0,.617.067,2.023,2.023,0,0,0,1.189-.359,1.169,1.169,0,0,0,.513-1.018.846.846,0,0,0-.125-.442,1.563,1.563,0,0,0-.28-.35,2.29,2.29,0,0,0-.488-.313q-.334-.171-.551-.267t-.667-.271l-.513-.209q-.188-.075-.513-.221t-.521-.259q-.2-.113-.471-.3a2.938,2.938,0,0,1-.446-.355,5.2,5.2,0,0,1-.363-.409,2.041,2.041,0,0,1-.3-.484,3.346,3.346,0,0,1-.175-.555,2.9,2.9,0,0,1-.071-.651,2.853,2.853,0,0,1,.818-2.019,3.818,3.818,0,0,1,2.128-1.118V2.47a.271.271,0,0,1,.267-.267h1.126a.257.257,0,0,1,.267.267V3.939a4.641,4.641,0,0,1,.922.192,5.345,5.345,0,0,1,.726.28,4.02,4.02,0,0,1,.53.313q.25.175.325.242t.125.117a.241.241,0,0,1,.042.317l-.676,1.218a.227.227,0,0,1-.192.133.266.266,0,0,1-.225-.058q-.025-.025-.121-.1t-.325-.221A4.306,4.306,0,0,0,15.4,6.1a3.726,3.726,0,0,0-.622-.217,2.784,2.784,0,0,0-.713-.1,2.168,2.168,0,0,0-1.293.359,1.122,1.122,0,0,0-.43,1.327.939.939,0,0,0,.246.346,3.677,3.677,0,0,0,.33.275,2.939,2.939,0,0,0,.467.259q.313.146.5.225t.584.229q.442.167.676.263t.634.292a5.041,5.041,0,0,1,.63.355,5.327,5.327,0,0,1,.517.417,2.16,2.16,0,0,1,.442.53,3.023,3.023,0,0,1,.263.638,2.752,2.752,0,0,1,.108.784Z" transform="translate(466.693 434.923)" fill="#dbdbdb"/>
    <path id="Icon_metro-dollar2-2" data-name="Icon metro-dollar2" d="M17.742,12.09a3.174,3.174,0,0,1-.83,2.2,3.583,3.583,0,0,1-2.157,1.139v1.46a.257.257,0,0,1-.267.267H13.362a.271.271,0,0,1-.267-.267v-1.46a5.259,5.259,0,0,1-1.064-.259,5.124,5.124,0,0,1-1.464-.772,4.755,4.755,0,0,1-.388-.313q-.1-.1-.146-.15a.253.253,0,0,1-.017-.342l.859-1.126a.26.26,0,0,1,.192-.1.207.207,0,0,1,.2.075l.017.017A4.357,4.357,0,0,0,13.312,13.5a2.914,2.914,0,0,0,.617.067,2.023,2.023,0,0,0,1.189-.359,1.169,1.169,0,0,0,.513-1.018.846.846,0,0,0-.125-.442,1.563,1.563,0,0,0-.28-.35,2.29,2.29,0,0,0-.488-.313q-.334-.171-.551-.267t-.667-.271l-.513-.209q-.188-.075-.513-.221t-.521-.259q-.2-.113-.471-.3a2.938,2.938,0,0,1-.446-.355,5.2,5.2,0,0,1-.363-.409,2.041,2.041,0,0,1-.3-.484,3.346,3.346,0,0,1-.175-.555,2.9,2.9,0,0,1-.071-.651,2.853,2.853,0,0,1,.818-2.019,3.818,3.818,0,0,1,2.128-1.118V2.47a.271.271,0,0,1,.267-.267h1.126a.257.257,0,0,1,.267.267V3.939a4.641,4.641,0,0,1,.922.192,5.345,5.345,0,0,1,.726.28,4.02,4.02,0,0,1,.53.313q.25.175.325.242t.125.117a.241.241,0,0,1,.042.317l-.676,1.218a.227.227,0,0,1-.192.133.266.266,0,0,1-.225-.058q-.025-.025-.121-.1t-.325-.221A4.306,4.306,0,0,0,15.4,6.1a3.726,3.726,0,0,0-.622-.217,2.784,2.784,0,0,0-.713-.1,2.168,2.168,0,0,0-1.293.359,1.122,1.122,0,0,0-.43,1.327.939.939,0,0,0,.246.346,3.677,3.677,0,0,0,.33.275,2.939,2.939,0,0,0,.467.259q.313.146.5.225t.584.229q.442.167.676.263t.634.292a5.041,5.041,0,0,1,.63.355,5.327,5.327,0,0,1,.517.417,2.16,2.16,0,0,1,.442.53,3.023,3.023,0,0,1,.263.638,2.752,2.752,0,0,1,.108.784Z" transform="translate(475.776 434.923)" fill="#dbdbdb"/>
    <path id="Icon_metro-dollar2-3" data-name="Icon metro-dollar2" d="M17.742,12.09a3.174,3.174,0,0,1-.83,2.2,3.583,3.583,0,0,1-2.157,1.139v1.46a.257.257,0,0,1-.267.267H13.362a.271.271,0,0,1-.267-.267v-1.46a5.259,5.259,0,0,1-1.064-.259,5.124,5.124,0,0,1-1.464-.772,4.755,4.755,0,0,1-.388-.313q-.1-.1-.146-.15a.253.253,0,0,1-.017-.342l.859-1.126a.26.26,0,0,1,.192-.1.207.207,0,0,1,.2.075l.017.017A4.357,4.357,0,0,0,13.312,13.5a2.914,2.914,0,0,0,.617.067,2.023,2.023,0,0,0,1.189-.359,1.169,1.169,0,0,0,.513-1.018.846.846,0,0,0-.125-.442,1.563,1.563,0,0,0-.28-.35,2.29,2.29,0,0,0-.488-.313q-.334-.171-.551-.267t-.667-.271l-.513-.209q-.188-.075-.513-.221t-.521-.259q-.2-.113-.471-.3a2.938,2.938,0,0,1-.446-.355,5.2,5.2,0,0,1-.363-.409,2.041,2.041,0,0,1-.3-.484,3.346,3.346,0,0,1-.175-.555,2.9,2.9,0,0,1-.071-.651,2.853,2.853,0,0,1,.818-2.019,3.818,3.818,0,0,1,2.128-1.118V2.47a.271.271,0,0,1,.267-.267h1.126a.257.257,0,0,1,.267.267V3.939a4.641,4.641,0,0,1,.922.192,5.345,5.345,0,0,1,.726.28,4.02,4.02,0,0,1,.53.313q.25.175.325.242t.125.117a.241.241,0,0,1,.042.317l-.676,1.218a.227.227,0,0,1-.192.133.266.266,0,0,1-.225-.058q-.025-.025-.121-.1t-.325-.221A4.306,4.306,0,0,0,15.4,6.1a3.726,3.726,0,0,0-.622-.217,2.784,2.784,0,0,0-.713-.1,2.168,2.168,0,0,0-1.293.359,1.122,1.122,0,0,0-.43,1.327.939.939,0,0,0,.246.346,3.677,3.677,0,0,0,.33.275,2.939,2.939,0,0,0,.467.259q.313.146.5.225t.584.229q.442.167.676.263t.634.292a5.041,5.041,0,0,1,.63.355,5.327,5.327,0,0,1,.517.417,2.16,2.16,0,0,1,.442.53,3.023,3.023,0,0,1,.263.638,2.752,2.752,0,0,1,.108.784Z" transform="translate(484.86 434.923)" fill="#f2f2f2"/>
    <path id="Icon_metro-dollar2-4" data-name="Icon metro-dollar2" d="M17.742,12.09a3.174,3.174,0,0,1-.83,2.2,3.583,3.583,0,0,1-2.157,1.139v1.46a.257.257,0,0,1-.267.267H13.362a.271.271,0,0,1-.267-.267v-1.46a5.259,5.259,0,0,1-1.064-.259,5.124,5.124,0,0,1-1.464-.772,4.755,4.755,0,0,1-.388-.313q-.1-.1-.146-.15a.253.253,0,0,1-.017-.342l.859-1.126a.26.26,0,0,1,.192-.1.207.207,0,0,1,.2.075l.017.017A4.357,4.357,0,0,0,13.312,13.5a2.914,2.914,0,0,0,.617.067,2.023,2.023,0,0,0,1.189-.359,1.169,1.169,0,0,0,.513-1.018.846.846,0,0,0-.125-.442,1.563,1.563,0,0,0-.28-.35,2.29,2.29,0,0,0-.488-.313q-.334-.171-.551-.267t-.667-.271l-.513-.209q-.188-.075-.513-.221t-.521-.259q-.2-.113-.471-.3a2.938,2.938,0,0,1-.446-.355,5.2,5.2,0,0,1-.363-.409,2.041,2.041,0,0,1-.3-.484,3.346,3.346,0,0,1-.175-.555,2.9,2.9,0,0,1-.071-.651,2.853,2.853,0,0,1,.818-2.019,3.818,3.818,0,0,1,2.128-1.118V2.47a.271.271,0,0,1,.267-.267h1.126a.257.257,0,0,1,.267.267V3.939a4.641,4.641,0,0,1,.922.192,5.345,5.345,0,0,1,.726.28,4.02,4.02,0,0,1,.53.313q.25.175.325.242t.125.117a.241.241,0,0,1,.042.317l-.676,1.218a.227.227,0,0,1-.192.133.266.266,0,0,1-.225-.058q-.025-.025-.121-.1t-.325-.221A4.306,4.306,0,0,0,15.4,6.1a3.726,3.726,0,0,0-.622-.217,2.784,2.784,0,0,0-.713-.1,2.168,2.168,0,0,0-1.293.359,1.122,1.122,0,0,0-.43,1.327.939.939,0,0,0,.246.346,3.677,3.677,0,0,0,.33.275,2.939,2.939,0,0,0,.467.259q.313.146.5.225t.584.229q.442.167.676.263t.634.292a5.041,5.041,0,0,1,.63.355,5.327,5.327,0,0,1,.517.417,2.16,2.16,0,0,1,.442.53,3.023,3.023,0,0,1,.263.638,2.752,2.752,0,0,1,.108.784Z" transform="translate(493.944 434.923)" fill="#f2f2f2"/>
    <path id="Icon_awesome-paw" data-name="Icon awesome-paw" d="M8.864,8.9c-2.75,0-6.648,4.251-6.648,6.934,0,1.208.928,1.93,2.484,1.93,1.691,0,2.808-.868,4.164-.868s2.488.868,4.164.868c1.556,0,2.484-.722,2.484-1.93C15.512,13.148,11.613,8.9,8.864,8.9Zm-5.1-.437A2.249,2.249,0,0,0,1.286,6.725,1.962,1.962,0,0,0,.113,9.334,2.249,2.249,0,0,0,2.591,11.07,1.962,1.962,0,0,0,3.764,8.461ZM6.7,7.742C7.769,7.46,8.3,6.012,7.895,4.509S6.284,2.016,5.213,2.3,3.606,4.027,4.016,5.53,5.627,8.024,6.7,7.742Zm9.743-1.016a2.249,2.249,0,0,0-2.478,1.736,1.962,1.962,0,0,0,1.173,2.609,2.249,2.249,0,0,0,2.478-1.736A1.962,1.962,0,0,0,16.441,6.726ZM11.03,7.742c1.071.282,2.272-.708,2.682-2.211s-.126-2.95-1.2-3.233-2.272.708-2.682,2.211.126,2.951,1.2,3.233Z" transform="translate(449 434.036)" fill="#dbdbdb"/>
  </g>
</svg>
